# Made in Blockbench 5.1.6
mtllib crystal.mtl

o 水晶箭_八棱箭杆
v -0.06000000000000005 0.5068 0.5
v 0.94 0.5068 0.5
v -0.06000000000000005 0.5048083 0.5048083
v 0.94 0.5048083 0.5048083
v -0.06000000000000005 0.5 0.5068
v 0.94 0.5 0.5068
v -0.06000000000000005 0.4951917 0.5048083
v 0.94 0.4951917 0.5048083
v -0.06000000000000005 0.49319999999999997 0.5
v 0.94 0.49319999999999997 0.5
v -0.06000000000000005 0.4951917 0.4951917
v 0.94 0.4951917 0.4951917
v -0.06000000000000005 0.5 0.49319999999999997
v 0.94 0.5 0.49319999999999997
v -0.06000000000000005 0.5048083 0.4951917
v 0.94 0.5048083 0.4951917
v -0.06000000000000005 0.5 0.5
vt 0.5 0.5
vt 0.5 0.5
vt 0.5 0.5
vt 0.5 0.5
vt 0.5 0.5
vt 0.5 0.5
vt 0.5 0.5
vt 0.5 0.5
vt 0.5 0.5
vt 0.5 0.5
vt 0.5 0.5
vt 0.5 0.5
vt 0.5 0.5
vt 0.5 0.5
vt 0.5 0.5
vt 0.5 0.5
vt 0.5 0.5
vt 0.5 0.5
vt 0.5 0.5
vt 0.5 0.5
vt 0.5 0.5
vt 0.5 0.5
vt 0.5 0.5
vt 0.5 0.5
vt 0.5 0.5
vt 0.5 0.5
vt 0.5 0.5
vt 0.5 0.5
vt 0.5 0.5
vt 0.5 0.5
vt 0.5 0.5
vt 0.5 0.5
vt 0.5 0.5
vt 0.5 0.5
vt 0.5 0.5
vt 0.5 0.5
vt 0.5 0.5
vt 0.5 0.5
vt 0.5 0.5
vt 0.5 0.5
vt 0.5 0.5
vt 0.5 0.5
vt 0.5 0.5
vt 0.5 0.5
vt 0.5 0.5
vt 0.5 0.5
vt 0.5 0.5
vt 0.5 0.5
vn 0 0.923877023877146 0.38268948868750996
vn 0 0.38268948868750996 0.923877023877146
vn 0 -0.38268948868750996 0.923877023877146
vn 0 -0.923877023877146 0.38268948868750996
vn 0 -0.923877023877146 -0.38268948868750996
vn 0 -0.38268948868750996 -0.923877023877146
vn 0 0.38268948868750996 -0.923877023877146
vn 0 0.923877023877146 -0.38268948868750996
vn -1 0 0
vn -1 0 0
vn -1 0 0
vn -1 0 0
usemtl m_d89f6d49-1ba9-4e35-4de1-ec432d389eb5
f 1/1/1 3/2/1 4/3/1
f 1/1/1 4/3/1 2/4/1
usemtl m_19d3361d-6d52-e33e-f0ec-3b7eeb9e9ed5
f 3/5/2 5/6/2 6/7/2
f 3/5/2 6/7/2 4/8/2
usemtl m_47a218fd-90f0-edec-b43d-ff5ba08c47bd
f 5/9/3 7/10/3 8/11/3
f 5/9/3 8/11/3 6/12/3
usemtl m_b66f513c-6860-9328-b711-e3298ec3a5f0
f 7/13/4 9/14/4 10/15/4
f 7/13/4 10/15/4 8/16/4
usemtl m_26e94f31-c48a-0205-0dc3-ad9158169127
f 9/17/5 11/18/5 12/19/5
f 9/17/5 12/19/5 10/20/5
usemtl m_47a218fd-90f0-edec-b43d-ff5ba08c47bd
f 11/21/6 13/22/6 14/23/6
f 11/21/6 14/23/6 12/24/6
usemtl m_19d3361d-6d52-e33e-f0ec-3b7eeb9e9ed5
f 13/25/7 15/26/7 16/27/7
f 13/25/7 16/27/7 14/28/7
usemtl m_d89f6d49-1ba9-4e35-4de1-ec432d389eb5
f 15/29/8 1/30/8 2/31/8
f 15/29/8 2/31/8 16/32/8
usemtl m_47a218fd-90f0-edec-b43d-ff5ba08c47bd
f 5/33/9 3/34/9 1/35/9
f 5/33/9 1/35/9 17/36/9
f 9/37/10 7/38/10 5/39/10
f 9/37/10 5/39/10 17/40/10
f 13/41/11 11/42/11 9/43/11
f 13/41/11 9/43/11 17/44/11
f 1/45/12 15/46/12 13/47/12
f 1/45/12 13/47/12 17/48/12
o 水晶箭_圆锥箭头
v 0.94 0.52 0.5
v 0.94 0.5141421 0.5141421
v 0.94 0.5 0.52
v 0.94 0.4858579 0.5141421
v 0.94 0.48 0.5
v 0.94 0.4858579 0.4858579
v 0.94 0.5 0.48
v 0.94 0.5141421 0.4858579
v 0.94 0.5 0.5
v 1.06 0.5 0.5
vt 0.5 0.5
vt 0.5 0.5
vt 0.5 0.5
vt 0.5 0.5
vt 0.5 0.5
vt 0.5 0.5
vt 0.5 0.5
vt 0.5 0.5
vt 0.5 0.5
vt 0.5 0.5
vt 0.5 0.5
vt 0.5 0.5
vt 0.5 0.5
vt 0.5 0.5
vt 0.5 0.5
vt 0.5 0.5
vt 0.5 0.5
vt 0.5 0.5
vt 0.5 0.5
vt 0.5 0.5
vt 0.5 0.5
vt 0.5 0.5
vt 0.5 0.5
vt 0.5 0.5
vt 0.5 0.5
vt 0.5 0.5
vt 0.5 0.5
vt 0.5 0.5
vt 0.5 0.5
vt 0.5 0.5
vt 0.5 0.5
vt 0.5 0.5
vt 0.5 0.5
vt 0.5 0.5
vt 0.5 0.5
vt 0.5 0.5
vt 0.5 0.5
vt 0.5 0.5
vt 0.5 0.5
vt 0.5 0.5
vn 0.15218614891908178 0.9131168935144907 0.3782286541969362
vn 0.15218614891908178 0.3782286541969362 0.9131168935144907
vn 0.1521861489190817 -0.3782286541969375 0.9131168935144902
vn 0.15218614891908158 -0.9131168935144893 0.37822865419693924
vn 0.15218614891908147 -0.9131168935144889 -0.3782286541969406
vn 0.15218614891908147 -0.3782286541969406 -0.9131168935144889
vn 0.1521861489190816 0.37822865419693935 -0.9131168935144895
vn 0.1521861489190817 0.9131168935144902 -0.3782286541969375
vn -1 0 0
vn -1 0 0
vn -1 0 0
vn -1 0 0
usemtl m_d89f6d49-1ba9-4e35-4de1-ec432d389eb5
f 18/49/13 19/50/13 27/51/13
usemtl m_19d3361d-6d52-e33e-f0ec-3b7eeb9e9ed5
f 19/52/14 20/53/14 27/54/14
usemtl m_47a218fd-90f0-edec-b43d-ff5ba08c47bd
f 20/55/15 21/56/15 27/57/15
usemtl m_b66f513c-6860-9328-b711-e3298ec3a5f0
f 21/58/16 22/59/16 27/60/16
usemtl m_26e94f31-c48a-0205-0dc3-ad9158169127
f 22/61/17 23/62/17 27/63/17
usemtl m_47a218fd-90f0-edec-b43d-ff5ba08c47bd
f 23/64/18 24/65/18 27/66/18
usemtl m_19d3361d-6d52-e33e-f0ec-3b7eeb9e9ed5
f 24/67/19 25/68/19 27/69/19
usemtl m_d89f6d49-1ba9-4e35-4de1-ec432d389eb5
f 25/70/20 18/71/20 27/72/20
usemtl m_47a218fd-90f0-edec-b43d-ff5ba08c47bd
f 20/73/21 19/74/21 18/75/21
f 20/73/21 18/75/21 26/76/21
f 22/77/22 21/78/22 20/79/22
f 22/77/22 20/79/22 26/80/22
f 24/81/23 23/82/23 22/83/23
f 24/81/23 22/83/23 26/84/23
f 18/85/24 25/86/24 24/87/24
f 18/85/24 24/87/24 26/88/24